{
	"asset":{
		"generator":"Khronos glTF Blender I/O v3.6.27",
		"version":"2.0"
	},
	"scene":0,
	"scenes":[
		{
			"name":"Scene",
			"nodes":[
				0,
				1,
				2,
				3,
				4,
				5,
				6,
				7,
				8,
				9,
				10,
				11,
				12,
				13,
				14,
				15,
				16
			]
		}
	],
	"nodes":[
		{
			"mesh":0,
			"name":"Wall",
			"scale":[
				50,
				12.5,
				50
			]
		},
		{
			"name":"Set7",
			"translation":[
				12.5,
				0,
				12.5
			]
		},
		{
			"name":"Set8",
			"translation":[
				37.5,
				0,
				12.5
			]
		},
		{
			"name":"Set5",
			"translation":[
				-37.5,
				0,
				12.5
			]
		},
		{
			"name":"Set6",
			"translation":[
				-12.5,
				0,
				12.5
			]
		},
		{
			"name":"Set3",
			"translation":[
				12.5,
				0,
				37.5
			]
		},
		{
			"name":"Set4",
			"translation":[
				37.5,
				0,
				37.5
			]
		},
		{
			"name":"Set2",
			"translation":[
				-12.5,
				0,
				37.5
			]
		},
		{
			"name":"Set1",
			"translation":[
				-37.5,
				0,
				37.5
			]
		},
		{
			"name":"Set15",
			"translation":[
				12.5,
				0,
				-37.5
			]
		},
		{
			"name":"Set16",
			"translation":[
				37.5,
				0,
				-37.5
			]
		},
		{
			"name":"Set13",
			"translation":[
				-37.5,
				0,
				-37.5
			]
		},
		{
			"name":"Set14",
			"translation":[
				-12.5,
				0,
				-37.5
			]
		},
		{
			"name":"Set11",
			"translation":[
				12.5,
				0,
				-12.5
			]
		},
		{
			"name":"Set12",
			"translation":[
				37.5,
				0,
				-12.5
			]
		},
		{
			"name":"Set10",
			"translation":[
				-12.5,
				0,
				-12.5
			]
		},
		{
			"name":"Set9",
			"translation":[
				-37.5,
				0,
				-12.5
			]
		}
	],
	"meshes":[
		{
			"name":"\u7acb\u65b9\u4f53.017",
			"primitives":[
				{
					"attributes":{
						"POSITION":0,
						"NORMAL":1,
						"TEXCOORD_0":2
					},
					"indices":3
				}
			]
		}
	],
	"accessors":[
		{
			"bufferView":0,
			"componentType":5126,
			"count":64,
			"max":[
				1.0211294889450073,
				2.021129608154297,
				1.0211294889450073
			],
			"min":[
				-1.0211294889450073,
				-0.021129488945007324,
				-1.0211293697357178
			],
			"type":"VEC3"
		},
		{
			"bufferView":1,
			"componentType":5126,
			"count":64,
			"type":"VEC3"
		},
		{
			"bufferView":2,
			"componentType":5126,
			"count":64,
			"type":"VEC2"
		},
		{
			"bufferView":3,
			"componentType":5123,
			"count":96,
			"type":"SCALAR"
		}
	],
	"bufferViews":[
		{
			"buffer":0,
			"byteLength":768,
			"byteOffset":0,
			"target":34962
		},
		{
			"buffer":0,
			"byteLength":768,
			"byteOffset":768,
			"target":34962
		},
		{
			"buffer":0,
			"byteLength":512,
			"byteOffset":1536,
			"target":34962
		},
		{
			"buffer":0,
			"byteLength":192,
			"byteOffset":2048,
			"target":34963
		}
	],
	"buffers":[
		{
			"byteLength":2240,
			"uri":"MapBase.bin"
		}
	]
}
