{
	"asset":{
		"generator":"Khronos glTF Blender I/O v3.6.27",
		"version":"2.0"
	},
	"scene":0,
	"scenes":[
		{
			"name":"Scene",
			"nodes":[
				0,
				1,
				2
			]
		}
	],
	"nodes":[
		{
			"mesh":0,
			"name":"Ground"
		},
		{
			"name":"EntryPos",
			"translation":[
				0,
				2.9487195014953613,
				-22.68333625793457
			]
		},
		{
			"mesh":1,
			"name":"Stone_Tower_Roof"
		}
	],
	"materials":[
		{
			"name":"Stone_Tower",
			"pbrMetallicRoughness":{
				"baseColorTexture":{
					"index":0
				},
				"metallicFactor":0,
				"roughnessFactor":0.5
			}
		}
	],
	"meshes":[
		{
			"name":"\u5e73\u9762",
			"primitives":[
				{
					"attributes":{
						"POSITION":0,
						"NORMAL":1,
						"TEXCOORD_0":2
					},
					"indices":3
				}
			]
		},
		{
			"name":"Cylinder.025",
			"primitives":[
				{
					"attributes":{
						"POSITION":4,
						"NORMAL":5,
						"TEXCOORD_0":6
					},
					"indices":7,
					"material":0
				}
			]
		}
	],
	"textures":[
		{
			"sampler":0,
			"source":0
		}
	],
	"images":[
		{
			"mimeType":"image/png",
			"name":"Stone_Base_Diffuse_Texture",
			"uri":"Stone_Base_Diffuse_Texture.png"
		}
	],
	"accessors":[
		{
			"bufferView":0,
			"componentType":5126,
			"count":4,
			"max":[
				68.78976440429688,
				0,
				68.7319564819336
			],
			"min":[
				-68.67414855957031,
				0,
				-68.7319564819336
			],
			"type":"VEC3"
		},
		{
			"bufferView":1,
			"componentType":5126,
			"count":4,
			"type":"VEC3"
		},
		{
			"bufferView":2,
			"componentType":5126,
			"count":4,
			"type":"VEC2"
		},
		{
			"bufferView":3,
			"componentType":5123,
			"count":6,
			"type":"SCALAR"
		},
		{
			"bufferView":4,
			"componentType":5126,
			"count":3832,
			"max":[
				7.854657173156738,
				53.53587341308594,
				-21.397905349731445
			],
			"min":[
				-7.7489471435546875,
				0.18043041229248047,
				-38.11433029174805
			],
			"type":"VEC3"
		},
		{
			"bufferView":5,
			"componentType":5126,
			"count":3832,
			"type":"VEC3"
		},
		{
			"bufferView":6,
			"componentType":5126,
			"count":3832,
			"type":"VEC2"
		},
		{
			"bufferView":7,
			"componentType":5123,
			"count":6276,
			"type":"SCALAR"
		}
	],
	"bufferViews":[
		{
			"buffer":0,
			"byteLength":48,
			"byteOffset":0,
			"target":34962
		},
		{
			"buffer":0,
			"byteLength":48,
			"byteOffset":48,
			"target":34962
		},
		{
			"buffer":0,
			"byteLength":32,
			"byteOffset":96,
			"target":34962
		},
		{
			"buffer":0,
			"byteLength":12,
			"byteOffset":128,
			"target":34963
		},
		{
			"buffer":0,
			"byteLength":45984,
			"byteOffset":140,
			"target":34962
		},
		{
			"buffer":0,
			"byteLength":45984,
			"byteOffset":46124,
			"target":34962
		},
		{
			"buffer":0,
			"byteLength":30656,
			"byteOffset":92108,
			"target":34962
		},
		{
			"buffer":0,
			"byteLength":12552,
			"byteOffset":122764,
			"target":34963
		}
	],
	"samplers":[
		{
			"magFilter":9729,
			"minFilter":9987
		}
	],
	"buffers":[
		{
			"byteLength":135316,
			"uri":"Map_City.bin"
		}
	]
}
