{
	"asset":{
		"generator":"Khronos glTF Blender I/O v3.6.27",
		"version":"2.0"
	},
	"scene":0,
	"scenes":[
		{
			"name":"Scene",
			"nodes":[
				1
			]
		}
	],
	"nodes":[
		{
			"name":"Point",
			"scale":[
				0.4306548237800598,
				0.4306548237800598,
				0.4306548237800598
			],
			"translation":[
				0,
				2,
				-1.1530799865722656
			]
		},
		{
			"children":[
				0
			],
			"mesh":0,
			"name":"\u7403"
		}
	],
	"meshes":[
		{
			"name":"\u7403",
			"primitives":[
				{
					"attributes":{
						"POSITION":0,
						"NORMAL":1,
						"TEXCOORD_0":2
					},
					"indices":3
				}
			]
		}
	],
	"accessors":[
		{
			"bufferView":0,
			"componentType":5126,
			"count":356,
			"max":[
				0.9807851910591125,
				2.956272602081299,
				0.9807852506637573
			],
			"min":[
				-0.9807851910591125,
				1.0589756965637207,
				-1.0512501001358032
			],
			"type":"VEC3"
		},
		{
			"bufferView":1,
			"componentType":5126,
			"count":356,
			"type":"VEC3"
		},
		{
			"bufferView":2,
			"componentType":5126,
			"count":356,
			"type":"VEC2"
		},
		{
			"bufferView":3,
			"componentType":5123,
			"count":1776,
			"type":"SCALAR"
		}
	],
	"bufferViews":[
		{
			"buffer":0,
			"byteLength":4272,
			"byteOffset":0,
			"target":34962
		},
		{
			"buffer":0,
			"byteLength":4272,
			"byteOffset":4272,
			"target":34962
		},
		{
			"buffer":0,
			"byteLength":2848,
			"byteOffset":8544,
			"target":34962
		},
		{
			"buffer":0,
			"byteLength":3552,
			"byteOffset":11392,
			"target":34963
		}
	],
	"buffers":[
		{
			"byteLength":14944,
			"uri":"Enemy.bin"
		}
	]
}
