{
	"asset":{
		"generator":"Khronos glTF Blender I/O v3.6.27",
		"version":"2.0"
	},
	"scene":0,
	"scenes":[
		{
			"name":"Scene",
			"nodes":[
				0,
				1,
				2,
				3,
				5
			]
		}
	],
	"nodes":[
		{
			"mesh":0,
			"name":"\u5186\u67f1",
			"scale":[
				0.381849467754364,
				0.5648854970932007,
				0.381849467754364
			],
			"translation":[
				0,
				1.4194626808166504,
				0
			]
		},
		{
			"mesh":1,
			"name":"\u7403",
			"translation":[
				0,
				0.4528457522392273,
				0
			]
		},
		{
			"mesh":2,
			"name":"\u7403.001",
			"scale":[
				0.40871381759643555,
				0.40871381759643555,
				0.40871381759643555
			],
			"translation":[
				0,
				2.3799309730529785,
				0
			]
		},
		{
			"mesh":3,
			"name":"\u7403.002",
			"translation":[
				-0.4561271071434021,
				1.8179452419281006,
				0.023693084716796875
			]
		},
		{
			"name":"Point",
			"rotation":[
				0,
				0.15564726293087006,
				0,
				0.9878126978874207
			],
			"scale":[
				0.3652842342853546,
				0.3652842044830322,
				0.3652842342853546
			],
			"translation":[
				0.18533924221992493,
				1.8507601022720337,
				-0.9663587808609009
			]
		},
		{
			"children":[
				4
			],
			"mesh":4,
			"name":"\u7403.003"
		}
	],
	"meshes":[
		{
			"name":"\u5186\u67f1",
			"primitives":[
				{
					"attributes":{
						"POSITION":0,
						"NORMAL":1,
						"TEXCOORD_0":2
					},
					"indices":3
				}
			]
		},
		{
			"name":"\u7403",
			"primitives":[
				{
					"attributes":{
						"POSITION":4,
						"NORMAL":5,
						"TEXCOORD_0":6
					},
					"indices":7
				}
			]
		},
		{
			"name":"\u7403.002",
			"primitives":[
				{
					"attributes":{
						"POSITION":8,
						"NORMAL":9,
						"TEXCOORD_0":10
					},
					"indices":11
				}
			]
		},
		{
			"name":"\u7403.003",
			"primitives":[
				{
					"attributes":{
						"POSITION":12,
						"NORMAL":13,
						"TEXCOORD_0":14
					},
					"indices":15
				}
			]
		},
		{
			"name":"\u7403.001",
			"primitives":[
				{
					"attributes":{
						"POSITION":16,
						"NORMAL":17,
						"TEXCOORD_0":18
					},
					"indices":19
				}
			]
		}
	],
	"accessors":[
		{
			"bufferView":0,
			"componentType":5126,
			"count":72,
			"max":[
				1,
				1,
				1
			],
			"min":[
				-1,
				-1,
				-1
			],
			"type":"VEC3"
		},
		{
			"bufferView":1,
			"componentType":5126,
			"count":72,
			"type":"VEC3"
		},
		{
			"bufferView":2,
			"componentType":5126,
			"count":72,
			"type":"VEC2"
		},
		{
			"bufferView":3,
			"componentType":5123,
			"count":132,
			"type":"SCALAR"
		},
		{
			"bufferView":4,
			"componentType":5126,
			"count":1104,
			"max":[
				0.3346836268901825,
				0.3951683044433594,
				0.10488312691450119
			],
			"min":[
				-0.3346836268901825,
				-0.42681849002838135,
				-0.10488297790288925
			],
			"type":"VEC3"
		},
		{
			"bufferView":5,
			"componentType":5126,
			"count":1104,
			"type":"VEC3"
		},
		{
			"bufferView":6,
			"componentType":5126,
			"count":1104,
			"type":"VEC2"
		},
		{
			"bufferView":7,
			"componentType":5123,
			"count":1584,
			"type":"SCALAR"
		},
		{
			"bufferView":8,
			"componentType":5126,
			"count":552,
			"max":[
				1,
				1,
				1
			],
			"min":[
				-1,
				-1,
				-1
			],
			"type":"VEC3"
		},
		{
			"bufferView":9,
			"componentType":5126,
			"count":552,
			"type":"VEC3"
		},
		{
			"bufferView":10,
			"componentType":5126,
			"count":552,
			"type":"VEC2"
		},
		{
			"bufferView":11,
			"componentType":5123,
			"count":792,
			"type":"SCALAR"
		},
		{
			"bufferView":12,
			"componentType":5126,
			"count":552,
			"max":[
				0.03550669550895691,
				0.010475754737854004,
				0.08119003474712372
			],
			"min":[
				-0.3313484787940979,
				-0.7501873970031738,
				-0.12857607007026672
			],
			"type":"VEC3"
		},
		{
			"bufferView":13,
			"componentType":5126,
			"count":552,
			"type":"VEC3"
		},
		{
			"bufferView":14,
			"componentType":5126,
			"count":552,
			"type":"VEC2"
		},
		{
			"bufferView":15,
			"componentType":5123,
			"count":792,
			"type":"SCALAR"
		},
		{
			"bufferView":16,
			"componentType":5126,
			"count":552,
			"max":[
				0.5007800459861755,
				1.9495580196380615,
				0.057175327092409134
			],
			"min":[
				0.18382376432418823,
				1.7398513555526733,
				-0.7262020111083984
			],
			"type":"VEC3"
		},
		{
			"bufferView":17,
			"componentType":5126,
			"count":552,
			"type":"VEC3"
		},
		{
			"bufferView":18,
			"componentType":5126,
			"count":552,
			"type":"VEC2"
		},
		{
			"bufferView":19,
			"componentType":5123,
			"count":792,
			"type":"SCALAR"
		}
	],
	"bufferViews":[
		{
			"buffer":0,
			"byteLength":864,
			"byteOffset":0,
			"target":34962
		},
		{
			"buffer":0,
			"byteLength":864,
			"byteOffset":864,
			"target":34962
		},
		{
			"buffer":0,
			"byteLength":576,
			"byteOffset":1728,
			"target":34962
		},
		{
			"buffer":0,
			"byteLength":264,
			"byteOffset":2304,
			"target":34963
		},
		{
			"buffer":0,
			"byteLength":13248,
			"byteOffset":2568,
			"target":34962
		},
		{
			"buffer":0,
			"byteLength":13248,
			"byteOffset":15816,
			"target":34962
		},
		{
			"buffer":0,
			"byteLength":8832,
			"byteOffset":29064,
			"target":34962
		},
		{
			"buffer":0,
			"byteLength":3168,
			"byteOffset":37896,
			"target":34963
		},
		{
			"buffer":0,
			"byteLength":6624,
			"byteOffset":41064,
			"target":34962
		},
		{
			"buffer":0,
			"byteLength":6624,
			"byteOffset":47688,
			"target":34962
		},
		{
			"buffer":0,
			"byteLength":4416,
			"byteOffset":54312,
			"target":34962
		},
		{
			"buffer":0,
			"byteLength":1584,
			"byteOffset":58728,
			"target":34963
		},
		{
			"buffer":0,
			"byteLength":6624,
			"byteOffset":60312,
			"target":34962
		},
		{
			"buffer":0,
			"byteLength":6624,
			"byteOffset":66936,
			"target":34962
		},
		{
			"buffer":0,
			"byteLength":4416,
			"byteOffset":73560,
			"target":34962
		},
		{
			"buffer":0,
			"byteLength":1584,
			"byteOffset":77976,
			"target":34963
		},
		{
			"buffer":0,
			"byteLength":6624,
			"byteOffset":79560,
			"target":34962
		},
		{
			"buffer":0,
			"byteLength":6624,
			"byteOffset":86184,
			"target":34962
		},
		{
			"buffer":0,
			"byteLength":4416,
			"byteOffset":92808,
			"target":34962
		},
		{
			"buffer":0,
			"byteLength":1584,
			"byteOffset":97224,
			"target":34963
		}
	],
	"buffers":[
		{
			"byteLength":98808,
			"uri":"player.bin"
		}
	]
}
